# xmcd
#
# Track frame offsets:
#	150
#	31893
#	53695
#	73173
#	154360
#	183307
#	209992
#	238355
#	308115
#
# Disc length: 4645 seconds
# Revision: 9
# Processed by: cddbd v1.5.2PL0 Copyright (c) Steve Scherf et al.
# Submitted via: dBpowerAMP V12.0
#
DISCID=87122309
DTITLE=John Mayall - 70th Birthday Concert - CD2
DYEAR=2003
DGENRE=Blues
TTITLE0=Please Mr. Lofton
TTITLE1=Hideaway
TTITLE2=All Your Love
TTITLE3=Have You Heard
TTITLE4=Hoochie Coochie Man
TTITLE5=I'm Tore Down
TTITLE6=It Ain't Right
TTITLE7=California
TTITLE8=Talk To Your Daughter
EXTD=
EXTT0=
EXTT1=
EXTT2=
EXTT3=
EXTT4=
EXTT5=
EXTT6=
EXTT7=
EXTT8=
PLAYORDER=
